<?xml version="1.0" standalone="no"?>
<!DOCTYPE svg PUBLIC "-//W3C//DTD SVG 20010904//EN"
 "http://www.w3.org/TR/2001/REC-SVG-20010904/DTD/svg10.dtd">
<svg version="1.0" xmlns="http://www.w3.org/2000/svg"
 width="350.000000pt" height="350.000000pt" viewBox="0 0 350.000000 350.000000"
 preserveAspectRatio="xMidYMid meet">
<metadata>
Created by potrace 1.11, written by Peter Selinger 2001-2013
</metadata>
<g transform="translate(0.000000,350.000000) scale(0.100000,-0.100000)"
fill="#000000" stroke="none">
<path d="M2235 3038 c-21 -73 -40 -135 -42 -137 -2 -3 -14 6 -27 18 -13 12
-36 23 -52 24 -24 2 -30 -2 -32 -23 -6 -39 -16 -42 -72 -21 -46 17 -50 18 -38
3 30 -35 29 -41 -4 -50 -32 -8 -32 -8 41 -35 41 -15 82 -25 91 -22 10 3 23 20
29 37 10 29 13 30 27 17 8 -9 22 -49 30 -90 16 -74 41 -134 76 -179 25 -33 87
-70 116 -70 20 0 22 -5 22 -56 0 -58 12 -94 33 -94 7 0 29 -27 49 -61 21 -33
41 -58 45 -56 5 3 21 30 38 60 29 54 29 56 11 76 -10 11 -34 26 -52 33 -19 7
-34 15 -34 19 0 15 45 39 73 39 35 0 97 -57 97 -89 0 -20 5 -21 105 -21 74 0
105 -3 105 -12 0 -6 10 -2 23 10 25 23 52 29 62 12 3 -5 -3 -15 -15 -22 -34
-22 -24 -51 40 -112 60 -58 69 -60 50 -11 -10 26 -9 26 28 19 l37 -7 -45 41
-45 41 30 25 c29 23 29 25 12 44 -10 11 -32 26 -48 32 -16 7 -29 15 -29 18 0
3 21 28 48 56 l47 51 -37 6 c-41 6 -149 83 -252 179 l-64 61 39 109 c21 61 37
110 34 110 -2 0 -16 -5 -31 -10 -57 -22 -395 84 -446 140 -15 17 -29 30 -31
30 -2 0 -21 -60 -42 -132z m114 18 c28 -19 77 -44 108 -56 73 -28 209 -52 246
-44 15 3 27 3 27 -1 0 -14 -70 -206 -89 -242 -25 -49 -100 -119 -154 -144 -23
-10 -63 -19 -89 -19 -39 0 -54 6 -83 32 -53 46 -87 120 -93 202 -4 57 1 87 29
187 19 65 37 119 40 119 4 0 30 -15 58 -34z m311 -444 c32 -20 30 -32 -5 -32
-26 0 -50 24 -40 40 8 13 9 13 45 -8z m116 -97 c3 -8 21 -24 40 -36 39 -24 44
-39 11 -39 -41 0 -97 55 -82 80 9 15 25 12 31 -5z"/>
<path d="M2300 2923 c0 -5 25 -18 55 -29 46 -18 55 -19 55 -6 0 8 -8 21 -17
28 -19 14 -93 19 -93 7z"/>
<path d="M2510 2855 c-10 -13 -9 -15 12 -15 13 0 40 -9 61 -19 23 -12 37 -15
37 -7 -1 43 -83 74 -110 41z"/>
<path d="M2330 2731 c0 -16 3 -37 6 -46 8 -21 56 -45 89 -45 25 0 75 39 75 58
0 5 -23 12 -51 14 -29 3 -62 14 -79 27 -38 27 -40 27 -40 -8z"/>
<path d="M1489 2798 c-22 -24 -38 -49 -37 -57 2 -8 21 -19 43 -25 37 -11 40
-15 43 -49 3 -39 12 -43 60 -31 15 4 22 14 22 29 0 44 25 56 112 54 50 -1 83
2 91 10 9 9 4 10 -18 6 -18 -4 -56 2 -95 14 -36 12 -80 21 -99 21 -30 0 -33 2
-29 25 6 27 -1 32 -19 14 -7 -7 -24 -13 -39 -15 -29 -3 -21 12 10 18 24 4 33
28 11 28 -10 0 -35 -19 -56 -42z m61 -28 c3 -1 -11 -6 -30 -10 -38 -9 -46 -7
-36 9 5 8 48 9 66 1z"/>
<path d="M1577 2490 c-80 -20 -203 -75 -247 -111 l-25 -20 80 4 c55 3 103 13
155 32 61 23 96 29 191 33 127 5 186 -4 285 -44 51 -20 76 -24 135 -22 l72 3
-74 42 c-126 72 -213 95 -364 99 -105 3 -145 0 -208 -16z"/>
<path d="M1653 2292 c-23 -3 -23 -4 -23 -202 l0 -198 35 -35 35 -35 0 174 c0
96 3 174 6 174 3 0 85 -77 182 -170 l177 -171 5 203 6 203 2 -212 c1 -117 -1
-213 -6 -213 -4 0 -43 36 -87 81 -44 44 -123 120 -175 169 l-95 88 3 -194 c2
-165 0 -197 -13 -210 -8 -8 -15 -26 -15 -40 0 -22 4 -24 50 -24 l50 0 0 152 0
153 143 -142 c139 -138 170 -163 201 -163 14 0 16 35 16 305 l0 305 -75 0 -75
0 0 -145 c0 -80 -3 -145 -8 -145 -4 0 -70 63 -147 141 -77 77 -147 144 -155
148 -8 4 -25 5 -37 3z"/>
<path d="M720 2220 l0 -70 75 0 75 0 0 -235 0 -235 75 0 75 0 0 235 0 235 75
0 75 0 0 70 0 70 -225 0 -225 0 0 -70z m313 3 l-83 -4 -2 -242 -3 -242 -2 242
-3 242 -83 4 c-45 1 -5 3 88 3 94 0 133 -2 88 -3z"/>
<path d="M1220 2226 l0 -65 38 -3 37 -3 3 -167 2 -168 -40 0 -40 0 0 -70 0
-70 79 0 c77 0 80 1 101 30 l21 30 -23 1 c-13 0 -44 0 -70 -1 -29 -1 -48 3
-48 9 0 6 20 11 45 11 l45 0 -2 228 -3 227 -40 6 c-26 4 -7 6 50 6 50 0 71 -2
48 -4 l-43 -4 0 -228 0 -229 25 -4 c18 -4 31 2 50 23 29 33 31 39 10 39 -13 0
-15 26 -15 170 l0 170 35 0 35 0 0 65 0 65 -150 0 -150 0 0 -64z"/>
<path d="M2240 2279 c0 -6 43 -79 95 -163 52 -84 97 -160 100 -169 4 -9 7 -71
8 -139 l2 -123 78 -3 77 -3 0 131 0 130 100 160 c55 88 100 167 100 175 0 12
-16 15 -83 15 l-83 0 -54 -100 c-30 -55 -57 -100 -60 -100 -3 0 -28 44 -56 98
l-52 97 -86 3 c-59 2 -86 -1 -86 -9z m210 -192 c36 -58 68 -107 72 -107 3 0
41 56 83 125 43 69 79 124 82 122 2 -3 -32 -64 -76 -136 l-81 -131 -2 -113 -2
-112 -5 115 -6 115 -72 112 c-39 61 -76 122 -83 135 -25 51 25 -18 90 -125z"/>
<path d="M3210 2197 c-52 -17 -96 -32 -98 -33 -5 -2 71 -194 78 -194 4 0 46
18 92 40 l85 40 -13 57 c-23 96 -30 117 -40 119 -5 1 -52 -12 -104 -29z"/>
<path d="M3346 2003 c-7 -17 18 -52 29 -41 8 8 -5 58 -15 58 -4 0 -11 -8 -14
-17z"/>
<path d="M430 1948 c0 -13 4 -38 10 -57 10 -37 1 -51 -47 -71 -25 -10 -32 -50
-10 -50 21 0 61 -60 48 -73 -13 -13 -75 -37 -116 -44 -16 -3 -43 -14 -60 -24
-16 -11 -40 -19 -51 -19 -12 0 -27 -6 -33 -14 -10 -12 -8 -14 11 -11 13 2 48
11 78 20 121 38 149 43 154 28 3 -7 -1 -31 -10 -53 -16 -40 -22 -43 -142 -85
-7 -3 -12 -14 -10 -26 2 -16 20 -27 78 -48 41 -15 88 -31 103 -35 l29 -7 -19
25 c-10 14 -27 26 -38 26 -20 1 -62 27 -54 34 2 2 22 6 45 8 l41 6 21 -67 c11
-36 21 -88 21 -116 1 -70 12 -148 22 -161 5 -6 20 -9 33 -7 22 4 23 8 15 41
-5 21 -9 49 -9 64 0 25 2 26 32 17 47 -13 48 -13 48 30 0 28 -8 49 -27 71 -26
31 -26 33 -8 46 10 8 24 14 31 14 15 0 122 49 154 70 14 9 37 20 53 24 15 3
27 13 27 21 0 17 -35 20 -45 4 -9 -14 -100 -55 -154 -69 -59 -15 -69 -4 -47
54 16 41 22 47 78 68 111 42 102 78 -27 99 -67 12 -73 14 -93 50 -18 31 -22
54 -22 122 0 71 -3 87 -20 102 -20 18 -20 17 -20 -8 0 -14 5 -29 10 -32 18
-11 11 -64 -10 -75 -21 -11 -21 -13 -37 79 -9 48 -33 69 -33 29z m139 -280
c16 3 81 -20 81 -29 0 -4 -17 -9 -37 -12 -45 -6 -74 19 -72 62 l1 26 7 -25 c4
-14 13 -24 20 -22z m-29 -319 c0 -5 -4 -9 -10 -9 -5 0 -10 7 -10 16 0 8 5 12
10 9 6 -3 10 -10 10 -16z m-23 -186 c-3 -10 -5 -4 -5 12 0 17 2 24 5 18 2 -7
2 -21 0 -30z"/>
<path d="M3220 1955 c-10 -12 -10 -18 0 -30 7 -8 18 -15 25 -15 19 0 36 25 29
44 -8 20 -38 21 -54 1z"/>
<path d="M3356 1941 c-9 -14 5 -41 21 -41 10 0 13 6 9 16 -3 9 -6 20 -6 25 0
12 -17 12 -24 0z"/>
<path d="M3270 1905 c-7 -9 -19 -14 -26 -11 -15 6 -23 -12 -16 -36 4 -16 7
-16 46 -1 52 21 50 18 36 42 -13 25 -23 26 -40 6z"/>
<path d="M1524 1818 c-89 -82 -226 -286 -308 -458 -63 -135 -69 -150 -56 -170
14 -23 56 23 94 106 l33 71 59 -4 c86 -6 82 -2 68 -85 -24 -137 -13 -225 31
-242 34 -13 76 -6 98 17 12 12 53 77 90 144 59 105 87 148 87 130 0 -3 -14
-34 -31 -70 -58 -126 -38 -202 55 -202 51 0 75 18 113 83 14 24 27 41 29 40 1
-2 -2 -24 -7 -48 -6 -25 -9 -69 -6 -99 3 -44 9 -59 31 -78 51 -43 103 -21 153
65 15 26 48 83 74 127 26 44 50 90 54 103 11 39 -14 25 -43 -24 -57 -95 -103
-162 -141 -205 -35 -38 -40 -41 -41 -22 -1 58 90 371 112 384 6 4 44 10 84 14
41 4 74 11 74 16 0 5 -34 9 -76 9 l-76 0 6 33 c3 17 22 65 42 104 30 60 34 75
24 88 -20 24 -56 18 -78 -12 -11 -16 -32 -54 -47 -86 -42 -89 -69 -117 -116
-117 -50 0 -50 -14 1 -34 l39 -16 -14 -45 c-16 -56 -29 -76 -106 -165 -44 -51
-67 -70 -84 -70 -39 0 -31 30 28 113 73 102 84 130 63 162 -19 28 -33 31 -60
10 -35 -27 -46 -19 -40 28 5 32 2 46 -10 56 -23 19 -63 5 -81 -29 -21 -42 -19
-66 10 -87 l25 -18 -45 -74 c-56 -91 -123 -176 -138 -176 -16 0 -12 29 28 175
18 69 36 146 40 172 3 26 27 96 52 155 78 186 75 264 -10 271 -31 3 -43 -3
-83 -40z m52 -42 c3 -8 -12 -49 -34 -92 -38 -76 -68 -159 -92 -252 l-11 -43
-67 6 c-37 4 -68 8 -69 10 -11 9 40 107 97 185 142 195 163 219 176 186z m127
-356 c-3 -11 -9 -23 -14 -26 -10 -6 -12 39 -3 49 12 12 22 -3 17 -23z"/>
<path d="M1510 1705 c-7 -9 -11 -18 -8 -20 3 -3 11 1 18 10 7 9 11 18 8 20 -3
3 -11 -1 -18 -10z"/>
<path d="M1000 1638 c1 -65 69 -243 123 -324 l26 -38 16 37 c20 47 20 42 -20
122 -19 38 -42 102 -51 142 l-18 73 -38 0 c-24 0 -38 -5 -38 -12z"/>
<path d="M2445 1635 c-29 -113 -40 -145 -62 -188 -40 -80 -96 -159 -144 -202
-40 -36 -133 -174 -124 -183 9 -10 162 107 212 162 96 106 173 260 189 378 l6
43 -37 0 c-21 0 -39 -4 -40 -10z"/>
<path d="M3088 1534 c-117 -59 -143 -87 -50 -53 112 42 182 78 182 93 0 24
-16 19 -132 -40z"/>
<path d="M2650 1570 c0 -5 5 -10 12 -10 22 0 540 -244 545 -257 3 -7 -2 -88
-9 -180 -8 -92 -14 -170 -12 -171 1 -2 9 9 17 25 13 26 46 338 36 347 -14 13
-555 256 -570 256 -10 0 -19 -4 -19 -10z"/>
<path d="M2660 1529 c0 -6 -7 -86 -16 -177 -8 -90 -12 -168 -7 -172 13 -12
515 -291 518 -288 6 9 33 404 27 410 -9 9 -503 238 -513 238 -5 0 -9 -5 -9
-11z"/>
<path d="M2630 1494 c0 -40 -30 -337 -34 -341 -2 -3 -57 -24 -122 -49 -64 -24
-122 -48 -128 -54 -6 -6 21 1 59 15 39 15 99 37 134 50 35 13 67 28 70 34 10
15 35 351 27 358 -3 4 -6 -2 -6 -13z"/>
<path d="M1246 1225 c-12 -21 -16 -39 -10 -44 33 -29 103 -80 121 -90 22 -11
23 -11 16 36 -5 40 -14 55 -52 90 -25 23 -48 42 -51 43 -3 0 -14 -16 -24 -35z"/>
<path d="M2620 1142 c0 -8 490 -292 504 -292 3 0 6 6 6 13 0 6 -71 50 -158 97
-86 47 -201 109 -254 138 -54 29 -98 49 -98 44z"/>
<path d="M2013 1098 c-12 -15 -24 -48 -18 -48 2 0 13 14 25 30 20 28 14 44 -7
18z"/>
<path d="M1565 1040 c-21 -22 -25 -31 -14 -34 46 -17 116 -26 203 -26 l99 0
-6 36 c-8 47 -13 51 -36 30 -26 -24 -88 -23 -143 3 -61 27 -69 27 -103 -9z"/>
<path d="M2440 1040 c35 -24 54 -31 30 -11 -14 11 -29 21 -35 21 -5 0 -3 -5 5
-10z"/>
<path d="M482 953 l-43 -86 28 -29 28 -28 50 34 c81 54 83 59 41 106 -19 22
-38 51 -42 65 -3 14 -9 25 -13 25 -4 0 -26 -39 -49 -87z"/>
<path d="M550 1031 c0 -4 14 -27 30 -50 39 -54 108 -97 176 -111 52 -11 115
-6 113 8 -1 10 -319 163 -319 153z"/>
<path d="M2500 1006 c0 -3 9 -10 20 -16 11 -6 20 -8 20 -6 0 3 -9 10 -20 16
-11 6 -20 8 -20 6z"/>
<path d="M2263 993 c-7 -3 -13 -11 -13 -18 0 -10 461 -334 567 -398 21 -13
196 111 235 166 19 26 3 18 -89 -46 -61 -42 -115 -77 -121 -77 -5 0 -131 83
-280 184 -315 214 -284 194 -299 189z"/>
<path d="M2555 973 c6 -6 93 -61 193 -122 l184 -112 76 45 c43 25 73 46 68 46
-6 0 -40 -18 -77 -40 l-67 -40 -159 96 c-206 125 -230 139 -218 127z"/>
<path d="M2470 893 c0 -4 35 -30 77 -56 l77 -49 40 23 c23 12 46 26 51 32 6 6
-12 -2 -38 -16 -55 -30 -52 -31 -149 35 -32 21 -58 35 -58 31z"/>
<path d="M734 851 c-6 -7 -5 -127 2 -145 4 -11 19 -16 43 -16 36 0 37 2 77 83
l41 82 -79 0 c-44 0 -81 -2 -84 -4z"/>
<path d="M425 839 c-5 -7 2 -19 16 -30 43 -33 55 -18 15 20 -17 16 -26 19 -31
10z"/>
<path d="M450 772 c6 -13 14 -21 18 -18 3 4 -2 14 -12 24 -18 16 -18 16 -6 -6z"/>
<path d="M2475 676 c-27 -20 -23 -65 14 -129 35 -62 64 -78 106 -59 48 22 42
81 -16 162 -32 43 -68 53 -104 26z"/>
<path d="M732 669 c5 -16 68 -25 68 -10 0 6 -9 11 -19 11 -11 0 -27 3 -37 7
-12 4 -15 2 -12 -8z"/>
<path d="M677 610 c-15 -17 -27 -36 -27 -41 0 -9 79 -53 85 -47 9 8 45 101 41
105 -2 2 -19 6 -38 9 -30 5 -38 2 -61 -26z"/>
<path d="M2635 600 c34 -66 1 -140 -64 -140 -44 0 -59 9 -86 48 -20 29 -25 32
-31 19 -14 -38 51 -98 108 -99 43 -1 59 -14 52 -44 -7 -29 1 -30 44 -4 34 21
42 40 17 40 -27 0 -35 33 -14 59 35 43 16 151 -27 151 -13 0 -13 -4 1 -30z"/>
</g>
</svg>
